<svg width="200" height="200" viewBox="0 0 200 200" fill="none" xmlns="http://www.w3.org/2000/svg">
<g clip-path="url(#clip0_2325_5618)">
<rect width="200" height="200" rx="100" fill="black" style="fill:black;fill-opacity:1;"/>
<path d="M145.599 99.9085C145.435 100.343 145.347 100.783 145.365 101.248C146.169 121.62 182.171 167.484 199.123 188.168C200.887 190.32 199.862 193.567 197.192 194.327L100.38 221.852C97.9321 222.548 95.5 220.702 95.5 218.149V91.1125C95.5 90.0816 95.9121 89.0938 96.6439 88.3705L126.678 58.6849C126.981 58.3847 127.333 58.1374 127.718 57.9532L151.893 46.3818C154.644 45.065 157.752 47.3397 157.344 50.3709L153.558 78.483C153.52 78.7718 153.448 79.0551 153.346 79.3277L145.599 99.9085Z" fill="white" style="fill:white;fill-opacity:1;"/>
<path d="M45.4014 99.9085C45.565 100.343 45.6534 100.783 45.6351 101.248C44.8313 121.62 8.82876 167.484 -8.12329 188.168C-9.88661 190.32 -8.86236 193.567 -6.19168 194.327L90.6201 221.852C93.0679 222.548 95.5 220.702 95.5 218.149V91.1125C95.5 90.0816 95.0879 89.0938 94.3561 88.3705L64.3225 58.6849C64.0187 58.3847 63.6672 58.1374 63.2824 57.9532L39.1072 46.3818C36.3563 45.065 33.2481 47.3397 33.6563 50.3709L37.4415 78.483C37.4804 78.7718 37.5518 79.0551 37.6544 79.3277L45.4014 99.9085Z" fill="white" style="fill:white;fill-opacity:1;"/>
<ellipse cx="98" cy="116" rx="61" ry="63" fill="white" style="fill:white;fill-opacity:1;"/>
<ellipse cx="92" cy="105.688" rx="8" ry="16.3125" fill="black" style="fill:black;fill-opacity:1;"/>
<ellipse cx="128" cy="102.312" rx="8" ry="16.3125" fill="black" style="fill:black;fill-opacity:1;"/>
<path d="M115.5 147C104.178 147 95 141.404 95 134.5C95 127.596 104.178 122 115.5 122C126.822 122 136 127.596 136 134.5C136 141.404 126.822 147 115.5 147Z" fill="black" style="fill:black;fill-opacity:1;"/>
</g>
<defs>
<clipPath id="clip0_2325_5618">
<rect width="200" height="200" rx="100" fill="white" style="fill:white;fill-opacity:1;"/>
</clipPath>
</defs>
</svg>
